<svg width="80" height="80" viewBox="0 0 80 80" fill="none" xmlns="http://www.w3.org/2000/svg">
<g clip-path="url(#clip0_4_63)">
<path d="M40.0001 6.66669C21.6001 6.66669 6.66675 21.6 6.66675 40C6.66675 58.4 21.6001 73.3334 40.0001 73.3334C58.4001 73.3334 73.3334 58.4 73.3334 40C73.3334 21.6 58.4001 6.66669 40.0001 6.66669ZM40.0001 20C46.4334 20 51.6667 25.2334 51.6667 31.6667C51.6667 38.1 46.4334 43.3334 40.0001 43.3334C33.5667 43.3334 28.3334 38.1 28.3334 31.6667C28.3334 25.2334 33.5667 20 40.0001 20ZM40.0001 66.6667C33.2334 66.6667 25.2334 63.9334 19.5334 57.0667C25.1667 52.6667 32.2667 50 40.0001 50C47.7334 50 54.8334 52.6667 60.4667 57.0667C54.7667 63.9334 46.7667 66.6667 40.0001 66.6667Z" fill="white"/>
</g>
<defs>
<clipPath id="clip0_4_63">
<rect width="80" height="80" fill="white"/>
</clipPath>
</defs>
</svg>
