<svg width="56" height="50" viewBox="0 0 56 50" fill="none" xmlns="http://www.w3.org/2000/svg">
<path d="M55.1897 11.7457V11.7467C55.1905 12.1821 55.0831 12.6109 54.8769 12.9944C54.6708 13.3779 54.3725 13.7042 54.0089 13.9437C53.6453 14.1833 53.2278 14.3286 52.7941 14.3667C52.3603 14.4047 51.9239 14.3343 51.5242 14.1617L51.0584 13.9605L50.8641 14.4292L43.2057 32.9032H12.7587L5.10662 14.438L4.91433 13.974L4.45121 14.1684C3.86061 14.4163 3.19977 14.4397 2.59313 14.2342C1.98648 14.0287 1.4759 13.6085 1.15754 13.0527C0.839178 12.4969 0.735003 11.8439 0.864633 11.2167C0.994264 10.5895 1.34875 10.0312 1.86135 9.64719C2.37394 9.26314 3.00926 9.07976 3.64766 9.13157C4.28607 9.18339 4.8835 9.46682 5.32745 9.92851C5.7714 10.3902 6.03123 10.9983 6.05801 11.6382C6.0848 12.2782 5.87668 12.9058 5.47286 13.403L5.15878 13.7896L5.54429 14.1051L16.4193 23.0051L17.0881 23.5525L17.2293 22.6999L19.8443 6.89985L19.9249 6.41226L19.4383 6.3259C18.82 6.21616 18.2614 5.88835 17.8641 5.40198C17.4668 4.91561 17.257 4.3029 17.2729 3.67508C17.2887 3.04725 17.5291 2.4459 17.9505 1.98019C18.3718 1.51447 18.9461 1.21525 19.5693 1.13683C20.1924 1.05841 20.823 1.20599 21.3465 1.55279C21.8701 1.89958 22.2521 2.42261 22.423 3.02694C22.5939 3.63126 22.5424 4.27683 22.278 4.84649C22.0136 5.41614 21.5537 5.87211 20.9818 6.13165L20.5226 6.34005L20.7349 6.79748L27.5237 21.4225L27.9773 22.3998L28.4308 21.4224L35.2333 6.75988L35.4424 6.30917L34.993 6.09723C34.4246 5.82915 33.9712 5.36606 33.7153 4.79209C33.4593 4.21812 33.4178 3.57138 33.5982 2.96939C33.7787 2.3674 34.1691 1.85012 34.6985 1.51155C35.228 1.17298 35.8613 1.03558 36.4835 1.12434C37.1056 1.2131 37.6753 1.52211 38.0889 1.99522C38.5026 2.46834 38.7328 3.07416 38.7376 3.70258C38.7425 4.33101 38.5218 4.94034 38.1156 5.41984C37.7094 5.89934 37.1446 6.21719 36.5239 6.31563L36.0267 6.39448L36.1089 6.89112L38.7252 22.6936L38.8662 23.5455L39.5348 22.9991L50.4423 14.0866L50.8258 13.7733L50.5162 13.3868C50.2539 13.0594 50.0738 12.674 49.9912 12.2627C49.9085 11.8514 49.9256 11.4263 50.0411 11.023C50.1565 10.6198 50.3669 10.25 50.6547 9.94477C50.9425 9.63953 51.2992 9.40771 51.695 9.26872C52.0908 9.12973 52.5141 9.08763 52.9296 9.14593C53.345 9.20424 53.7404 9.36125 54.0826 9.60383C54.4249 9.8464 54.704 10.1675 54.8966 10.5401C55.0892 10.9128 55.1897 11.3262 55.1897 11.7457ZM9.73221 48.902V42.402H46.2322V48.902H9.73221ZM13.236 39.402V35.902H42.7635V39.402H13.236Z" fill="black" stroke="white"/>
</svg>
