<svg width="52" height="52" viewBox="0 0 52 52" fill="none" xmlns="http://www.w3.org/2000/svg">
<g filter="url(#filter0_d_14_4)">
<path d="M22.2401 14.4533L8.42675 0.666626L4.66675 4.42663L18.4534 18.2133L22.2401 14.4533ZM32.6667 0.666626L38.1067 6.10663L4.66675 39.5733L8.42675 43.3333L41.8934 9.89329L47.3334 15.3333V0.666626H32.6667ZM33.5467 25.76L29.7867 29.52L38.1334 37.8666L32.6667 43.3333H47.3334V28.6666L41.8934 34.1066L33.5467 25.76Z" fill="white"/>
<path d="M38.4603 5.75307L33.8739 1.16663H46.8334V14.1262L42.247 9.53974L41.8936 9.18633L41.54 9.5396L8.42689 42.6263L5.37371 39.5732L38.4604 6.46004L38.8137 6.10648L38.4603 5.75307ZM38.487 37.5131L30.4939 29.52L33.5467 26.4671L41.5399 34.4602L41.8934 34.8137L42.247 34.4602L46.8334 29.8737V42.8333H33.8739L38.487 38.2202L38.8405 37.8666L38.487 37.5131ZM5.37385 4.42663L8.42709 1.37339L21.5314 14.4524L18.4547 17.5074L5.37385 4.42663Z" stroke="black"/>
</g>
<defs>
<filter id="filter0_d_14_4" x="0.666748" y="0.666626" width="50.6667" height="50.6666" filterUnits="userSpaceOnUse" color-interpolation-filters="sRGB">
<feFlood flood-opacity="0" result="BackgroundImageFix"/>
<feColorMatrix in="SourceAlpha" type="matrix" values="0 0 0 0 0 0 0 0 0 0 0 0 0 0 0 0 0 0 127 0" result="hardAlpha"/>
<feOffset dy="4"/>
<feGaussianBlur stdDeviation="2"/>
<feComposite in2="hardAlpha" operator="out"/>
<feColorMatrix type="matrix" values="0 0 0 0 0 0 0 0 0 0 0 0 0 0 0 0 0 0 0.25 0"/>
<feBlend mode="normal" in2="BackgroundImageFix" result="effect1_dropShadow_14_4"/>
<feBlend mode="normal" in="SourceGraphic" in2="effect1_dropShadow_14_4" result="shape"/>
</filter>
</defs>
</svg>
